
<global>
amp_veltrack=0
ampeg_attack=0.005
ampeg_release=0.45
</global>

<group>
group_label=PP
lpc_hicc1=42
lpc_locc1=0

<region>
hikey=B5
hivel=127
lokey=A#5
loop_end=278627
loop_mode=loop_continuous
loop_start=47570
loop_xfade=17048
lovel=0
lpc=ptn5Qai3ksIGyq1Cm0SEwpQ3EkJwmWzBOl2RQHoJmr9aI38/CWPBv5Mrc74UsLdA8FvxwP4k4D+ZquhAgMklwTzQtkB200U/xMNMwL+aekBnM0HA3wf2vu2VxECZLPXA
lpc_rms=-38.69
offset=515
pitch_keycenter=A#5
sample=Viola_harmonic_PP_A#4.opus
</region>

<region>
hikey=B6
hivel=127
lokey=A#6
loop_end=270198
loop_mode=loop_continuous
loop_start=50688
loop_xfade=18165
lovel=0
lpc=IIslQbfrhcGLVldBZWkTwd1gFEFvVeLAcmzMQGvAycABpJ1AErccwDv/REC908e/zb4uQPkP8sATAXlAXyJNQMdaU8BLYYY/NaTRv6d/mj/kdbm+DsyiP2iuJ78ZUIy/
lpc_rms=-42.55
offset=721
pitch_keycenter=A#6
sample=Viola_harmonic_PP_A#5.opus
</region>

<region>
hikey=F4
hivel=127
lokey=C4
loop_end=258619
loop_mode=loop_continuous
loop_start=56242
loop_xfade=20156
lovel=0
lpc=huQdQkWD1ML6oM9Chcoiwui7HkFdMIrB10VRQfFZSD/LI+S/Pty2P1lWqMCMgIFAD3cGwIVE+7/lLQ9BTvnQwBljXsCXrp+9y2YFQbR0ur+gdz7AWXilwDdGEUFAQ1zA
lpc_rms=-38.71
offset=3175
sample=Viola_harmonic_PP_C3.opus
</region>

<region>
hikey=C#5
hivel=127
lokey=F#4
loop_end=270516
loop_mode=loop_continuous
loop_start=58829
loop_xfade=21083
lovel=0
lpc=VTn1Qc5NscLTtdpCeZOgwrM0P0KP5cvBzBHLQIkksr2M05xAh/bdwEwztEAD3eK++7SYwJhIyr7/hFlBQAqCwSoC+kBlY/2/QtDJvac1f0AtzNrAZse6QBb7nsBVtk5A
lpc_rms=-44.29
offset=5680
pitch_keycenter=C5
sample=Viola_harmonic_PP_C4.opus
</region>

<region>
hikey=C#6
hivel=127
lokey=C6
loop_end=289211
loop_mode=loop_continuous
loop_start=60100
loop_xfade=21538
lovel=0
lpc=qt6iQSL7SsJxIXJCMCNDwsJd9UHbl3fB4PvgQF5TQ8A1Ylw/cZtWP6K0AcDXI5FAsk9/wE8ro7+oyL1AnayewCa0HEDwuEq+818vv/v2i7/XabtA+xwKwUU33D8eQhFA
lpc_rms=-46.94
offset=1150
pitch_keycenter=C6
sample=Viola_harmonic_PP_C5.opus
</region>

<region>
hikey=D#5
hivel=127
lokey=D5
loop_end=197698
loop_mode=loop_continuous
loop_start=48352
loop_xfade=17328
lovel=0
lpc=FwWNQSP0QcLHJGtCSoQuwkDZ0UG6mFbBG9iZQGLnZsDN7otALI+Jv21gX78Hks0/KxwcwKXcGr+XmsBAnI3PwBJVVUBpBcy/+Vq0vkBQFkDgTGS/jS2mv0MHfT1tXHg/
lpc_rms=-45.98
offset=14374
pitch_keycenter=D5
sample=Viola_harmonic_PP_D4.opus
</region>

<region>
hikey=D#6
hivel=127
lokey=D6
loop_end=276434
loop_mode=loop_continuous
loop_start=50148
loop_xfade=17972
lovel=0
lpc=QEPoQdcPlcIvE61CJniAwkoXHEKhDaHBgakQQX7628AZ16RAq5Q6Pz2QOMC5krs/SdlcP19RxsD3GDhBSTvpwL5vAsDl88dAVdCdwCbFtT/aCh3BqEmgQRH4cMEEC5BA
lpc_rms=-47.64
offset=6682
pitch_keycenter=D6
sample=Viola_harmonic_PP_D5.opus
</region>

<region>
hikey=F5
hivel=127
lokey=E5
loop_end=189405
loop_mode=loop_continuous
loop_start=53898
loop_xfade=19316
lovel=0
lpc=hr7eQcFBkcLxRpRCD7YIwlX7D0ERCfHAMJH9QHFbvsAjs+ZAxoiiwLG4oD0Vwtw/9IQdvmhlbsBvOglBk4ySwM1uX8CsId9AE6WjwG6RNUDTiP49RXt6wHVBm0CwT72/
lpc_rms=-39.77
offset=20147
pitch_keycenter=E5
sample=Viola_harmonic_PP_E4.opus
</region>

<region>
hikey=F6
hivel=127
lokey=E6
loop_end=268141
loop_mode=loop_continuous
loop_start=56487
loop_xfade=20243
lovel=0
lpc=GhkIQlLOiMJ12IhCAa5GwhSUIkLbGs3BmfgnQQ0pxb+jVw/AbcKoQJ7t18CKaQFB+yZawI8XScDhv9pA8PM5wI2hYj9CjZfA/UgswUk5tEH0G1XBkHOZQJd4EcF3+LhA
lpc_rms=-34.20
pitch_keycenter=E6
sample=Viola_harmonic_PP_E5.opus
</region>

<region>
hikey=G5
hivel=127
lokey=F#5
loop_end=280076
loop_mode=loop_continuous
loop_start=55541
loop_xfade=19904
lovel=0
lpc=sjYPQn7trcLo+6JChuT1wUedJEEdy67B0LLOQbVogcFKOxFBGSoqP0ZPHMHCFxtB2f1mwLykXT6D8HRAhbQCvy3VhcBbckhAwpKjPw0/D8CNxllA1kVywHitJkByJA8/
lpc_rms=-39.58
offset=2642
pitch_keycenter=F#5
sample=Viola_harmonic_PP_F#4.opus
</region>

<region>
hikey=G6
hivel=127
lokey=F#6
loop_end=286622
loop_mode=loop_continuous
loop_start=56969
loop_xfade=20416
lovel=0
lpc=eUfgQX25UsJXYDxC5FbkwSv+xEEln73BrVmQQR3KIsGsewdBwML2wAqUlUCZJly++QhKveQlvz+jSte/MujzP55dhcE1/chB6nJtwa9oj0DxMbvA0ocWQX/l7sAwonlA
lpc_rms=-36.29
offset=1217
pitch_keycenter=F#6
sample=Viola_harmonic_PP_F#5.opus
</region>

<region>
hikey=A5
hivel=127
lokey=G#5
loop_end=267416
loop_mode=loop_continuous
loop_start=59409
loop_xfade=21291
lovel=0
lpc=rkA6QT965sG5//lBsoyfwXlNCkF8YATAReT5PgihW77fk7O+MG/XPhTBub5UwEc+zP5XP14F3b+k62tA8I+BwKSBwj+/kLE+JoxLvWfgk7/M0Q1A0Mnbv0Om3j83PKi/
lpc_rms=-52.36
offset=6418
pitch_keycenter=G#5
sample=Viola_harmonic_PP_G#4.opus
</region>

<region>
hikey=A6
hivel=127
lokey=G#6
loop_end=279062
loop_mode=loop_continuous
loop_start=56440
loop_xfade=20227
lovel=0
lpc=9/4LQUuim8Gt66NBOstkwQ7xFEGuoq3AZQ5SQJF5x7/ibL2/uRR6QAaYR8B5cFdAeuEtwEJMHL7Q3R2+PcTPPiis9T9XSxnAXxiIPxcSg7/VEcM9+u+oP+iMjb4fd1m/
lpc_rms=-48.77
offset=11601
pitch_keycenter=G#6
sample=Viola_harmonic_PP_G#5.opus
</region>
</group>

<group>
group_label=MF
lpc_hicc1=84
lpc_locc1=43

<region>
hikey=B4
hivel=127
lokey=F#4
loop_end=226614
loop_mode=loop_continuous
loop_start=49281
loop_xfade=17661
lovel=0
lpc=9iQTQl/J38LHiAtDlIqywkmR90GRaS/BYEpXQY6UbMHB0RhB6zNPPwheysA7XftAcBUzwXyBUUBmH1FB/phpwc5xEkD8ez9AkX5FwF+l+kBM8/vAz53iQOdzBMHWGYZA
lpc_rms=-32.82
pitch_keycenter=A#4
sample=Viola_harmonic_MF_A#3.opus
</region>

<region>
hikey=B5
hivel=127
lokey=A#5
loop_end=268066
loop_mode=loop_continuous
loop_start=58296
loop_xfade=20892
lovel=0
lpc=y+dyQTSu/8GURQpCTDnOwaI9jUEDfEDBl8fZQEwfJsA9EOw/0QhPwJafUECYce8+8JobwJ5lfr95DLdAuNCVwD6sOT+3PL8+BZXXP/LKL8AJeiVAXYVAwEcOqUAMoaLA
lpc_rms=-42.53
pitch_keycenter=A#5
sample=Viola_harmonic_MF_A#4.opus
</region>

<region>
hikey=B6
hivel=127
lokey=A#6
loop_end=227659
loop_mode=loop_continuous
loop_start=49509
loop_xfade=17743
lovel=0
lpc=AGsyQW//i8FSQntBtvsiwX5EAEFOLoTA4q7yP+6QF8AxdnNAWx1VwHkpXkDMWdi+HZ/0vw/RbcBUYglB7NPowG0elUA1m4nAspltQEbt+78Nj1FAF0F1wErlTEADkwPA
lpc_rms=-38.78
offset=713
pitch_keycenter=A#6
sample=Viola_harmonic_MF_A#5.opus
</region>

<region>
hikey=F4
hivel=127
lokey=C4
loop_end=227865
loop_mode=loop_continuous
loop_start=49554
loop_xfade=17759
lovel=0
lpc=DW0oQsWoAMMhlyJDoHjdwnijPUKWlK7BeWKQQWpek8F6BapB+7pYwfCkSMCZOzpBW2ItwcU/NcBPjqtBIBK0wVPY3kB0wlU/fOrqPmgFr0Dp4dPAJBedwLeDFkFggUfA
lpc_rms=-31.32
sample=Viola_harmonic_MF_C3.opus
</region>

<region>
hikey=C#5
hivel=127
lokey=C5
loop_end=247824
loop_mode=loop_continuous
loop_start=53894
loop_xfade=19314
lovel=0
lpc=A+N9Qaj9GsKVjxpCpK6zwfwXPkFgNL/A8mq9P+1R0L/73j5AIXkcwF2mMUBXLKm/0MJev1BEmr/5VbhAN1PgwHMI2kByFaXAp4MGQAcQcL5NR8W9XJoPPyKAKMBsYCFA
lpc_rms=-39.75
offset=585
pitch_keycenter=C5
sample=Viola_harmonic_MF_C4.opus
</region>

<region>
hikey=C#6
hivel=127
lokey=C6
loop_end=250954
loop_mode=loop_continuous
loop_start=54575
loop_xfade=19558
lovel=0
lpc=LMs4QQsXvMGPobVB5DN1wbmkAUFDNybAqmQCP0qaez4hD2q/PKEJQOkeUcA+pIlA204iwM6od78joH5AnJV6wPC8IkDprzS/1LqVvkG8Cz83bMs9wUSbP2/dwsCfz45A
lpc_rms=-44.40
offset=2068
pitch_keycenter=C6
sample=Viola_harmonic_MF_C5.opus
</region>

<region>
hivel=127
key=C7
loop_end=225823
loop_mode=loop_continuous
loop_start=49109
loop_xfade=17600
lovel=0
lpc=8dt2QWKMzcEzL51Bo0s7wcRbEUEZ30bAkI1cQOOehcCr9SFAzqpUwFXy4EB22D3BUfUSQchClz/Uz5XA8aGFQOLBtcBMARtA+vDMvyu3hUAVeTjACjQ5QOYRzsDbl0RA
lpc_rms=-38.84
offset=23106
sample=Viola_harmonic_MF_C6.opus
</region>

<region>
hikey=D#5
hivel=127
lokey=D5
loop_end=226808
loop_mode=loop_continuous
loop_start=49324
loop_xfade=17676
lovel=0
lpc=jihRQSypAMKDIgVCKC6twWesU0Hvju7A4Ip6QPqgLsCOroE/woL/P75tMsA9HV9A/UKCwIESIrtjdsNAaNb1wOvVykCa7EXA/U5uPDIGh76pCY49vmcfQBKwQsDEeLo/
lpc_rms=-38.46
offset=247
pitch_keycenter=D5
sample=Viola_harmonic_MF_D4.opus
</region>

<region>
hikey=D#6
hivel=127
lokey=D6
loop_end=217938
loop_mode=loop_continuous
loop_start=47395
loop_xfade=16985
lovel=0
lpc=Gqq1QfFwO8JDQDJC2eXkwdaGhEHxNOvAPQwSQJZB3b62aa6/6ICgQD3H0sC7ftRA3vpzwLN22b/jBdhAaLTHwBlEfkBeaijAw7EJQFfhUL6PeGXBseOgQZtVE8GtqYs/
lpc_rms=-38.49
offset=370
pitch_keycenter=D6
sample=Viola_harmonic_MF_D5.opus
</region>

<region>
hikey=F5
hivel=127
lokey=E5
loop_end=215414
loop_mode=loop_continuous
loop_start=46846
loop_xfade=16788
lovel=0
lpc=GLkMQqlLssKe88JCzXmCwt2sGkK9IqXB7HECQbEOWMCgrMNA2hnCwJo4ZD8haINAtWSdvNltMMFdeK1B4paywWTTZEFZzAHAPA6uwDmWBkGQhgnBU9QkQfIuO8HOGO5A
lpc_rms=-33.65
pitch_keycenter=E5
sample=Viola_harmonic_MF_E4.opus
</region>

<region>
hikey=F6
hivel=127
lokey=E6
loop_end=223845
loop_mode=loop_continuous
loop_start=48679
loop_xfade=17445
lovel=0
lpc=cTvbQe56JsI6UwlCt03DwS/3j0FJ2SjBNX0ZQfaGAsGmotlA+OMawDGioT1QMv0/qilTPjHWtL9Dzh1A5IlAP5tcBsDoSCZAwfefwR+oq0E09RnBpBvDQL4bk8AAIok/
lpc_rms=-29.74
offset=136
pitch_keycenter=E6
sample=Viola_harmonic_MF_E5.opus
</region>

<region>
hikey=G5
hivel=127
lokey=F#5
loop_end=220689
loop_mode=loop_continuous
loop_start=47993
loop_xfade=17199
lovel=0
lpc=/Q9JQlEIB8PSkSBDlDvLwv/8FEJ63WHBXKGBQbS6esGC7DBBNPyCwG2sLD/jYYdAMjOlwMpm1MC3A8FBDA6JwUpBD72Hi/ZAfUvYwEUWx0CA/XrA1irLQDjVBMH4FLVA
lpc_rms=-33.65
offset=676
pitch_keycenter=F#5
sample=Viola_harmonic_MF_F#4.opus
</region>

<region>
hikey=G6
hivel=127
lokey=F#6
loop_end=220257
loop_mode=loop_continuous
loop_start=47899
loop_xfade=17166
lovel=0
lpc=12CMQS+CA8IXM+pB/KaSwZkKbEFDaFbBcc8gQZUxvcAmXTpAJfSKv3JYJD8iXEi9cOqYP28rir/aVDg/qj3dPy7lesEA87ZBeB9iwboBuEDq+ZPAsOWiQEDSOcD/rto/
lpc_rms=-40.19
offset=121
pitch_keycenter=F#6
sample=Viola_harmonic_MF_F#5.opus
</region>

<region>
hikey=A5
hivel=127
lokey=G#5
loop_end=245584
loop_mode=loop_continuous
loop_start=53407
loop_xfade=19140
lovel=0
lpc=97M3QVWn0cGh5tlB1RmQwXADIkEoAzbA45wMvh5B+b/hSVlAeJa0vysOAL/+dt0/iYwAv2v897+lVoBAbseMwNhGaEAYKZq/o+icvjuoKT9DohU/4TBpwEboy0DO9VXA
lpc_rms=-43.53
offset=1595
pitch_keycenter=G#5
sample=Viola_harmonic_MF_G#4.opus
</region>

<region>
hikey=A6
hivel=127
lokey=G#6
loop_end=270789
loop_mode=loop_continuous
loop_start=58888
loop_xfade=21104
lovel=0
lpc=85gRQXgulMGhpZJBR1BawaIDHkFOxbDACL5PQPlHKsBzuuo+qX+WP5XIR79aOsc/y9TTvybmDkDDS/7ALfwQQT4lLcAt1c6/sGQ5QBkHfcAnV0xA/P/vv4XNKkC29t2/
lpc_rms=-48.06
offset=846
pitch_keycenter=G#6
sample=Viola_harmonic_MF_G#5.opus
</region>
</group>

<group>
group_label=FF
lpc_hicc1=127
lpc_locc1=85

<region>
hikey=B4
hivel=127
lokey=F#4
loop_end=257586
loop_mode=loop_continuous
loop_start=46945
loop_xfade=16824
lovel=0
lpc=nkSFQV3DN8Ld61hCzbYbwmlvxEF1r3TBsSrzQFDakcDLCGlAmoNFv8IhH8Ck8ZpAGrV1wN8ZPsBPSSxBY+I1wXy8yECQU+q/QLMGwC4AskDrKtPAhe3pQOlTw8BUJCNA
lpc_rms=-30.50
offset=954
pitch_keycenter=A#4
sample=Viola_harmonic_FF_A#3.opus
</region>

<region>
hikey=B5
hivel=127
lokey=A#5
loop_end=267131
loop_mode=loop_continuous
loop_start=47856
loop_xfade=17150
lovel=0
lpc=TU5hQcwIv8F3/JxB2aMwwZNi/EBFR7HAwf9JQG3h5r9XwRxAn7gpwAUs3z8kVmw/D1n5vut8RcCRtd5AI7zWwDZdmUBoKTvAQXJEQEBzZMCjsWtAuSNNwPAFsUAOj7LA
lpc_rms=-33.28
offset=309
pitch_keycenter=A#5
sample=Viola_harmonic_FF_A#4.opus
</region>

<region>
hikey=B6
hivel=127
lokey=A#6
loop_end=269222
loop_mode=loop_continuous
loop_start=51107
loop_xfade=18315
lovel=0
lpc=Yb1CQaNIgcHABi9Bw86dwAQfLUC919y++azzP3+GE8CSJ15A54sfwHymnj81lUJAw9qKwD5tusCtW0RBdA0YwfDKrkCdjTzAek0GP8Cv676Lq5w/jHEqwJo1UkC/hzjA
lpc_rms=-35.60
offset=83
pitch_keycenter=A#6
sample=Viola_harmonic_FF_A#5.opus
</region>

<region>
hikey=F4
hivel=127
lokey=C4
loop_end=208147
loop_mode=loop_continuous
loop_start=45265
loop_xfade=16222
lovel=0
lpc=LIcMQmer0cJdfwJD6yivwniwCULXu2jBuzqjQaot3cH6eNNBFmx3wSjDbD9CS6pA2e5gwEbWmsDHBWlBc/o5wVSwCcAHRcRAxY4qwMFAi0BRAZTABE8QQMQ+4L8Ci6g/
lpc_rms=-26.21
sample=Viola_harmonic_FF_C3.opus
</region>

<region>
hikey=C#5
hivel=127
lokey=C5
loop_end=262125
loop_mode=loop_continuous
loop_start=53693
loop_xfade=19242
lovel=0
lpc=VYqBQTllI8KT2C5CPpHQwZ22T0H8iRbBDKYYQZFtGsFymfNAUfSCwPpVAkBs2Gq/mrUUviC11b9INWNAgaumv8q/tL73otE+CRoJv3kTtz4J+ZE/opaKv5/gUr82u9Q/
lpc_rms=-35.83
offset=541
pitch_keycenter=C5
sample=Viola_harmonic_FF_C4.opus
</region>

<region>
hikey=C#6
hivel=127
lokey=C6
loop_end=262916
loop_mode=loop_continuous
loop_start=50858
loop_xfade=18226
lovel=0
lpc=MjGWQWzP5cEEua5BDjxBwQuD4EANeWbA1QnXPx4UnL3lbdK9+YswP0ucib85s98/YeNEP9ByWMAMCXRAsw2/v4hxOj+yPGo9S9stv4WBF0APGWjAJjHcQDCZZsG539tA
lpc_rms=-33.41
pitch_keycenter=C6
sample=Viola_harmonic_FF_C5.opus
</region>

<region>
hivel=127
key=C7
loop_end=279655
loop_mode=loop_continuous
loop_start=49289
loop_xfade=17664
lovel=0
lpc=LDaHQduZocFJJFRB2pKywMvv8j9zeEpAFZ5bv1nl1T9ULY8/ig5lwHqWC0H6w27Bb5z8QLudkECr5/LAQp3wQGwM1sCHHx5AMWfIv8PBP7+cEy1AlpwcwMSRc78uOpm/
lpc_rms=-30.74
offset=171
sample=Viola_harmonic_FF_C6.opus
</region>

<region>
hikey=D#5
hivel=127
lokey=D5
loop_end=264178
loop_mode=loop_continuous
loop_start=57450
loop_xfade=20589
lovel=0
lpc=PW/zQF+se8HGQIFB/nhOwYlsMUErIfXAdufLQBptnsBOdFxAc438v9rEVj/ho0g/3JigPTtn6L8K1mBA/UZPwMAVVkBlVELAhaT6P/pnA8B/hilAT+AgwHcnGEAfYae/
lpc_rms=-33.98
offset=290
pitch_keycenter=D5
sample=Viola_harmonic_FF_D4.opus
</region>

<region>
hikey=D#6
hivel=127
lokey=D6
loop_end=264099
loop_mode=loop_continuous
loop_start=54636
loop_xfade=19580
lovel=0
lpc=8qoEQnCmPcK22/FByeR2wXv5WEG7HxPBa6/eQGm5pcBIYKxAvSN8wAKfT0CldOy/6LW+P+Wjdj6EgfS+vJEvQC8xp8DgDQ5BkL8ywXTdhUEyUhjC5OnPQZKLfT/2ubjA
lpc_rms=-29.52
offset=228
pitch_keycenter=D6
sample=Viola_harmonic_FF_D5.opus
</region>

<region>
hikey=F5
hivel=127
lokey=E5
loop_end=256425
loop_mode=loop_continuous
loop_start=44592
loop_xfade=15981
lovel=0
lpc=mED4QZ6Kn8KlfL5C/sGIwo+aDkJtwpjBd+JOQd4RvsD7/+I/dfDZvpCJ8r8qsB5B2o4awfedAcDc2mRBJNo6wZ4wIL1zA/FAOkkiwfE6U0HYNVvB091KQRjWEsFcl6ZA
lpc_rms=-28.62
offset=3655
pitch_keycenter=E5
sample=Viola_harmonic_FF_E4.opus
</region>

<region>
hikey=F6
hivel=127
lokey=E6
loop_end=243714
loop_mode=loop_continuous
loop_start=44862
loop_xfade=16077
lovel=0
lpc=WjQhQqH5NMKaaKpBMGs2wS/GFEGe6uW/WotQQGQWp78oMKM/HFdCPzmHl78sjSdAIUaKv/dcqT+2/Y+/5jxsQC2omsDqXRVBSIArwqgECkIURcXAguTDP1bPir/BYETA
lpc_rms=-27.49
pitch_keycenter=E6
sample=Viola_harmonic_FF_E5.opus
</region>

<region>
hikey=G5
hivel=127
lokey=F#5
loop_end=266724
loop_mode=loop_continuous
loop_start=47378
loop_xfade=16979
lovel=0
lpc=S1NCQvFm5cLkZ/FCDBWAwtVBl0GSXPPAwyFiQUEzS8GUVO1AABtZQCQh38AYBwFBXuWIwGpS4cCTOZZBV5XJwHqovcDVMhRB18m1wNBz3z/EqFs/Q3MmQX+tjsEcMlFB
lpc_rms=-26.34
offset=636
pitch_keycenter=F#5
sample=Viola_harmonic_FF_F#4.opus
</region>

<region>
hikey=G6
hivel=127
lokey=F#6
loop_end=242703
loop_mode=loop_continuous
loop_start=45027
loop_xfade=16136
lovel=0
lpc=urfWQRNTHMIz8dtBM6lWwWsdIEFhzQXBwUa8QDcEGcALsUxALKOUvw6arz8z19Q+SuIVvCPHIkAmYFvAvhz8QHvP8cH+hQRClCxqwX9yTkCGN8i/NiocQBnzkD21ux6/
lpc_rms=-31.37
offset=423
pitch_keycenter=F#6
sample=Viola_harmonic_FF_F#5.opus
</region>

<region>
hikey=A5
hivel=127
lokey=G#5
loop_end=269061
loop_mode=loop_continuous
loop_start=56119
loop_xfade=20111
lovel=0
lpc=poUIQbCPg8Gi+XpBRdwTwVxyt0BV++O/knorvj3R7z3vzOs/aG+bv+hU5j70KnE/u1tfvt61j78oPH5A6WtywGbmA0B16ho/OdVGvxn4dD+bkeg+76+Xv9Zp6T8wLwU9
lpc_rms=-38.35
offset=709
pitch_keycenter=G#5
sample=Viola_harmonic_FF_G#4.opus
</region>

<region>
hikey=A6
hivel=127
lokey=G#6
loop_end=257999
loop_mode=loop_continuous
loop_start=48676
loop_xfade=17444
lovel=0
lpc=RS1GQSXjscF4jpFBXNMLwV0BnED8rAnAh3/PPylfkL9TQPi+r50kQOJAs7/Nih9AWr9BwEz6sUD/XVfBWC8+Qa3tzT7co+rA5KfUQJvEpsATFnlAySovwKTbWUDWcxTA
lpc_rms=-36.30
pitch_keycenter=G#6
sample=Viola_harmonic_FF_G#5.opus
</region>
</group>